<svg width="87" height="24" viewBox="0 0 87 24" fill="none" xmlns="http://www.w3.org/2000/svg"><path fill-rule="evenodd" clip-rule="evenodd" d="M12.7071 5.70711C13.0976 5.31658 13.0976 4.68342 12.7071 4.29289C12.3166 3.90237 11.6834 3.90237 11.2929 4.29289L4.29289 11.2929C3.90237 11.6834 3.90237 12.3166 4.29289 12.7071L11.2929 19.7071C11.6834 20.0976 12.3166 20.0976 12.7071 19.7071C13.0976 19.3166 13.0976 18.6834 12.7071 18.2929L7.41421 13H19C19.5523 13 20 12.5523 20 12C20 11.4477 19.5523 11 19 11H7.41421L12.7071 5.70711Z" fill="#8C9CAD"/><path d="M48.544 6.656C47.6 9.776 46.544 13.264 45.712 16.192C44.816 13.104 43.856 9.92 42.864 6.56L40.48 6.672C41.808 10.368 43.28 14.672 44.352 18H46.944C48.112 14.32 49.792 9.504 50.8 6.656H48.544ZM55.1121 18.192C57.5121 18.192 59.2401 16.768 59.2401 13.84C59.2401 10.832 57.3841 9.68 55.2401 9.68C52.7601 9.68 51.0481 11.216 51.0481 13.984C51.0481 16.624 52.6001 18.192 55.1121 18.192ZM55.1281 16.528C53.9121 16.528 53.1761 15.616 53.1761 13.968C53.1761 12.192 54.0241 11.36 55.2241 11.36C56.4401 11.36 57.0961 12.24 57.0961 13.888C57.0961 15.744 56.2801 16.528 55.1281 16.528ZM63.3771 18C63.3291 14.816 63.3291 9.856 63.3771 6.656H61.2491C61.3131 9.856 61.3131 14.816 61.2491 18H63.3771ZM68.9439 18.08C69.8239 18.08 70.5439 17.84 70.8959 17.68L70.7199 16.16C70.4479 16.32 70.0319 16.464 69.6319 16.464C68.6559 16.464 68.6239 15.92 68.6239 15.136V11.472H70.8319L70.8799 9.856H68.6719V7.696H67.3919L66.6079 9.856L64.8159 10.464V11.472H66.5919C66.6079 12.032 66.6079 12.656 66.6079 13.2C66.6079 13.92 66.5439 15.36 66.5439 16.048C66.5439 17.552 67.4719 18.08 68.9439 18.08ZM79.6265 16.496C79.1145 16.496 79.0345 16.144 79.0345 15.696C79.0345 15.184 79.0985 13.904 79.0985 12.48C79.0985 11.28 78.6665 9.68 75.6745 9.68C74.3945 9.68 73.1945 10 72.6025 10.272L72.8745 11.92C73.4985 11.616 74.3945 11.392 75.2425 11.392C76.7465 11.392 77.0505 11.92 77.0665 13.088L75.6425 13.312C73.8185 13.584 72.2825 14.112 72.2825 15.936C72.2825 17.376 73.2585 18.16 74.6345 18.16C75.6585 18.16 76.5225 17.776 77.1145 17.088C77.2585 17.616 77.6745 18.128 78.7785 18.128C79.3705 18.128 79.7705 17.984 80.0745 17.792L80.1385 16.432C80.0105 16.464 79.8185 16.496 79.6265 16.496ZM75.5305 16.624C74.7465 16.624 74.2825 16.336 74.2825 15.648C74.2825 14.976 74.7465 14.688 75.6745 14.528L77.0665 14.304C77.0665 15.056 77.0665 15.808 77.0505 16.24C76.5385 16.496 75.9945 16.624 75.5305 16.624ZM83.7209 18C83.6889 17.216 83.6729 16.384 83.6729 15.376C83.6729 13.088 83.6569 11.584 85.8969 11.584C86.2329 11.584 86.6489 11.6 86.8729 11.632L86.8889 9.824C86.6489 9.744 86.2649 9.696 85.9129 9.696C84.9049 9.696 84.0089 10.272 83.6089 11.696H83.5769V9.856H81.5929C81.6089 10.592 81.6409 11.328 81.6409 12.064V15.712C81.6409 16.48 81.6249 17.248 81.5929 18H83.7209Z" fill="#2E3742"/></svg>